<svg width="57" height="48" viewBox="0 0 57 48" fill="none" xmlns="http://www.w3.org/2000/svg">
<path d="M31.3398 31.8146C31.1626 31.4652 30.9854 31.121 30.788 30.7261C31.2841 30.6602 31.7145 30.7159 32.1499 30.7716C35.6027 31.2222 38.5239 30.2755 40.7718 27.5264C40.9034 27.3694 40.9642 27.0808 41.268 27.1264C41.3844 27.1416 41.4553 27.0808 41.3844 27.01C41.03 26.6556 41.2629 26.21 41.1718 25.8101C40.9693 24.914 40.4478 24.514 39.1264 24.3368C39.1467 24.0989 39.3694 24.0634 39.5112 23.9774C40.1896 23.5571 40.9136 23.2028 41.5565 22.7319C43.0045 21.6789 44.5993 21.6282 46.2649 21.9472C46.9028 22.0687 47.5408 22.1801 48.3002 22.3218C47.9913 21.9472 47.6471 21.8966 47.3534 21.7801C46.6092 21.4915 45.8548 21.2232 45.1056 20.9498C44.7663 20.8283 44.6853 20.6511 44.9385 20.3575C45.3334 19.8968 45.708 19.4107 46.108 18.95C48.7862 15.8972 51.2619 12.6924 53.1908 9.10289C53.9654 7.66506 54.6084 6.16141 54.978 4.55651C55.0236 4.354 55.0995 4.15655 54.9679 3.73634C53.9351 6.94108 52.2593 9.61423 50.3 12.1001C48.3508 14.5656 46.2346 16.8895 43.7184 18.8285C43.8753 15.7351 44.2449 12.6924 44.1892 9.6193C43.8601 9.65473 43.9512 9.87243 43.9512 10.0142C43.9512 13.2848 43.0956 16.368 41.8654 19.3702C41.5717 20.0841 41.1515 20.5853 40.4073 20.9042C39.01 21.5017 37.6633 22.2307 36.2862 22.8737C35.6635 23.1673 35.6128 23.1116 35.6685 22.4281C35.9217 19.2791 35.9723 16.125 35.9622 12.9709C35.9571 11.8672 35.8103 10.7584 35.7293 9.64461C35.4255 9.7003 35.5166 9.91294 35.5116 10.0547C35.3597 14.3581 34.6003 18.5652 33.6232 22.742C33.3801 23.7799 31.8107 24.6456 30.7981 24.2862C29.4919 23.8255 28.206 23.2989 26.8998 22.8332C26.5454 22.7066 26.6264 22.4636 26.6213 22.2307C26.5909 19.1171 26.3074 16.0288 25.7303 12.9658C25.6847 12.7329 25.6695 12.4848 25.4214 12.1861C25.2544 13.1076 25.4923 13.8974 25.5328 14.6871C25.6594 17.0818 25.8163 19.4715 25.7252 21.8712C25.71 22.3016 25.629 22.3978 25.1886 22.2864C24.1507 22.0282 23.0976 21.8358 22.0496 21.6232C20.4903 21.3042 18.9461 21.5827 17.407 21.7902C16.9362 21.851 16.8603 21.7143 16.9311 21.2991C17.6096 17.2185 19.1638 13.6037 22.5306 10.9913C24.4798 9.4826 26.7226 8.5713 29.1021 7.96376C31.1424 7.4423 33.2029 7.07778 35.2939 6.93602C37.4051 6.79426 39.5112 6.61706 41.6173 6.42974C45.1612 6.11585 48.7508 5.8779 52.0314 4.23755C53.7579 3.37182 55.0286 2.10106 55.7475 0.293642C55.7728 0.232888 55.7982 0.177198 55.8336 0.12657C55.8539 0.096193 55.8994 0.0810046 56.0159 0C56.0665 0.30883 56.1526 0.58222 56.1526 0.855611C56.1677 6.84489 55.8994 12.7937 53.8287 18.5096C53.125 20.4486 52.2238 22.2965 51.2062 24.0887C50.9936 24.4685 50.7101 24.757 50.3304 24.9494C47.3281 26.4581 44.4474 28.2048 41.3388 29.511C39.7238 30.1894 38.0987 30.8476 36.4482 31.4551C33.8155 32.4272 31.1171 32.4525 28.3781 32.1639C27.1681 32.0373 26.029 31.7234 24.9911 31.0906C24.3026 30.6704 24.3279 30.5792 24.9354 30.0983C25.6493 29.5414 26.3783 29.3085 27.2542 29.6781C27.6744 29.8553 28.1402 29.9464 28.5806 30.078C29.4008 30.3261 30.145 30.6906 30.6715 31.4045C30.8184 31.6019 30.9905 31.7994 31.2436 31.8854C31.2892 31.9006 31.3348 31.9158 31.3803 31.931C31.3753 31.9006 31.3601 31.8551 31.3398 31.8146Z" fill="url(#paint0_linear_3_4575)"/>
<path d="M1.18992 47.3582C0.754525 46.6089 0.70896 45.7887 0.653269 44.9838C0.0356091 36.1948 5.48317 27.4058 12.3989 23.8669C16.9251 21.5532 21.5373 21.6342 26.2153 23.3606C28.3771 24.1605 30.4883 25.1326 32.7665 25.5781C34.5588 25.9274 36.3459 26.0135 38.0673 25.1528C38.8925 24.7377 39.3887 24.8288 39.7937 25.2996C40.2746 25.8616 40.3101 26.5552 39.7633 27.264C38.6039 28.7778 37.0142 29.6536 35.1865 30.0789C32.9032 30.6054 30.6604 30.2359 28.4581 29.6182C26.9848 29.203 25.5318 28.7018 24.0687 28.2462C23.8105 28.1652 23.5421 28.1044 23.2738 28.0487C22.884 27.9728 22.4435 27.8057 22.16 28.1956C21.9068 28.555 22.079 28.9803 22.2359 29.3397C22.889 30.8636 24.1547 31.7142 25.6432 32.2255C27.7898 32.9647 30.0276 32.9799 32.2602 32.7926C35.6523 32.504 38.7052 31.1168 41.753 29.7448C44.1122 28.6866 46.3905 27.4716 48.6586 26.2261C49.7117 25.649 50.7951 25.1427 52.0001 24.9655C52.3089 24.9199 52.6329 24.9098 52.9417 24.9554C53.9492 25.1073 54.1163 25.5224 53.5695 26.3983C53.3974 26.6717 53.1746 26.8944 52.9063 27.0615C49.0484 29.4866 45.6007 32.4534 42.0112 35.2328C40.2341 36.6099 38.4824 38.0427 36.4067 38.9641C33.6475 40.1944 30.7161 40.4171 27.7493 40.2399C22.9599 39.9615 18.3021 38.9185 13.6494 37.8351C11.68 37.3794 9.70553 36.9744 7.6551 37.2428C4.22253 37.6933 2.09616 39.8096 1.63039 43.2725C1.47344 44.4623 1.3975 45.6571 1.35193 46.857C1.33675 47.0291 1.33168 47.1962 1.18992 47.3582Z" fill="#0B0B0B"/>
<path d="M31.3383 31.8137C31.3587 31.8596 31.374 31.9003 31.3943 31.9461C31.3485 31.9309 31.3027 31.9156 31.2568 31.9003C31.2823 31.8697 31.3129 31.8392 31.3383 31.8137Z" fill="white"/>
<defs>
<linearGradient id="paint0_linear_3_4575" x1="19.4894" y1="25.2055" x2="56.1532" y2="-8.15789e-07" gradientUnits="userSpaceOnUse">
<stop stop-color="#119639"/>
<stop offset="1" stop-color="#AACE12"/>
</linearGradient>
</defs>
</svg>
