<svg width="45" height="45" viewBox="0 0 45 45" fill="none" xmlns="http://www.w3.org/2000/svg">
<circle cx="22.5" cy="22.5" r="22.5" fill="#F2AA02"/>
<path d="M28 33.25V30.75C28 29.4239 27.4732 28.1521 26.5355 27.2145C25.5979 26.2768 24.3261 25.75 23 25.75H14.25C12.9239 25.75 11.6521 26.2768 10.7145 27.2145C9.77678 28.1521 9.25 29.4239 9.25 30.75V33.25" stroke="white" stroke-width="2" stroke-linecap="round" stroke-linejoin="round"/>
<path d="M18.625 20.75C21.3864 20.75 23.625 18.5114 23.625 15.75C23.625 12.9886 21.3864 10.75 18.625 10.75C15.8636 10.75 13.625 12.9886 13.625 15.75C13.625 18.5114 15.8636 20.75 18.625 20.75Z" stroke="white" stroke-width="2" stroke-linecap="round" stroke-linejoin="round"/>
<path d="M29.25 20.75L31.75 23.25L36.75 18.25" stroke="white" stroke-width="2" stroke-linecap="round" stroke-linejoin="round"/>
</svg>
